<svg width="24" height="24" viewBox="0 0 24 24" fill="none" xmlns="http://www.w3.org/2000/svg">
<path d="M12 0C5.383 0 0 5.383 0 12C0 18.617 5.383 24 12 24C18.617 24 24 18.617 24 12C24 5.383 18.617 0 12 0ZM12 23C5.935 23 1 18.065 1 12C1 5.935 5.935 1 12 1C18.065 1 23 5.935 23 12C23 18.065 18.065 23 12 23Z" fill="currentColor"/>
<path d="M5.39218 16.1363C4.84672 16.1363 4.36519 15.9986 3.94758 15.723C3.52996 15.4446 3.20326 15.0525 2.96746 14.5469C2.73167 14.0383 2.61377 13.4375 2.61377 12.7443C2.61377 12.0568 2.73167 11.4602 2.96746 10.9545C3.20326 10.4488 3.53138 10.0582 3.95184 9.78265C4.37229 9.50708 4.85809 9.3693 5.40922 9.3693C5.83536 9.3693 6.17201 9.44032 6.41917 9.58237C6.66917 9.72157 6.85951 9.88066 6.99019 10.0596C7.12371 10.2358 7.22741 10.3807 7.30127 10.4943H7.3865V7.27271H8.39218V16H7.42059V14.9943H7.30127C7.22741 15.1136 7.12229 15.2642 6.98593 15.446C6.84956 15.625 6.65496 15.7855 6.40212 15.9275C6.14928 16.0667 5.81263 16.1363 5.39218 16.1363ZM5.52854 15.2329C5.93195 15.2329 6.27286 15.1278 6.55127 14.9176C6.82968 14.7045 7.04133 14.4105 7.18621 14.0355C7.3311 13.6576 7.40354 13.2216 7.40354 12.7273C7.40354 12.2386 7.33252 11.8111 7.19047 11.4446C7.04843 11.0753 6.8382 10.7883 6.55979 10.5838C6.28138 10.3764 5.93763 10.2727 5.52854 10.2727C5.10241 10.2727 4.74729 10.3821 4.4632 10.6008C4.18195 10.8167 3.9703 11.1108 3.82826 11.4829C3.68905 11.8523 3.61945 12.267 3.61945 12.7273C3.61945 13.1932 3.69047 13.6165 3.83252 13.9971C3.97741 14.375 4.19047 14.6761 4.47172 14.9005C4.75581 15.1221 5.10809 15.2329 5.52854 15.2329Z" fill="currentColor"/>
<path d="M13.0328 16.1363C12.4419 16.1363 11.9234 15.9957 11.4774 15.7145C11.0342 15.4332 10.6876 15.0398 10.4376 14.5341C10.1905 14.0284 10.0669 13.4375 10.0669 12.7613C10.0669 12.0795 10.1905 11.4844 10.4376 10.9758C10.6876 10.4673 11.0342 10.0724 11.4774 9.79117C11.9234 9.50992 12.4419 9.3693 13.0328 9.3693C13.6237 9.3693 14.1408 9.50992 14.5839 9.79117C15.03 10.0724 15.3766 10.4673 15.6237 10.9758C15.8737 11.4844 15.9987 12.0795 15.9987 12.7613C15.9987 13.4375 15.8737 14.0284 15.6237 14.5341C15.3766 15.0398 15.03 15.4332 14.5839 15.7145C14.1408 15.9957 13.6237 16.1363 13.0328 16.1363ZM13.0328 15.2329C13.4817 15.2329 13.851 15.1179 14.1408 14.8878C14.4305 14.6576 14.645 14.3551 14.7842 13.9801C14.9234 13.6051 14.993 13.1988 14.993 12.7613C14.993 12.3238 14.9234 11.9162 14.7842 11.5383C14.645 11.1605 14.4305 10.8551 14.1408 10.6221C13.851 10.3892 13.4817 10.2727 13.0328 10.2727C12.5839 10.2727 12.2146 10.3892 11.9248 10.6221C11.6351 10.8551 11.4206 11.1605 11.2814 11.5383C11.1422 11.9162 11.0726 12.3238 11.0726 12.7613C11.0726 13.1988 11.1422 13.6051 11.2814 13.9801C11.4206 14.3551 11.6351 14.6576 11.9248 14.8878C12.2146 15.1179 12.5839 15.2329 13.0328 15.2329Z" fill="currentColor"/>
<path d="M20.3805 9.45452V10.3068H16.9884V9.45452H20.3805ZM17.9771 7.88634H18.9827V14.125C18.9827 14.4091 19.0239 14.6221 19.1063 14.7642C19.1915 14.9034 19.2995 14.9971 19.4302 15.0454C19.5637 15.0909 19.7043 15.1136 19.8521 15.1136C19.9628 15.1136 20.0538 15.1079 20.1248 15.0966C20.1958 15.0824 20.2526 15.071 20.2952 15.0625L20.4998 15.9659C20.4316 15.9915 20.3364 16.017 20.2143 16.0426C20.0921 16.071 19.9373 16.0852 19.7498 16.0852C19.4657 16.0852 19.1873 16.0241 18.9146 15.902C18.6447 15.7798 18.4202 15.5937 18.2413 15.3437C18.0651 15.0937 17.9771 14.7784 17.9771 14.3977V7.88634Z" fill="currentColor"/>
</svg>
